<?xml version="1.0" encoding="UTF-8" standalone="no"?>
<svg
   xmlns:dc="http://purl.org/dc/elements/1.1/"
   xmlns:cc="http://creativecommons.org/ns#"
   xmlns:rdf="http://www.w3.org/1999/02/22-rdf-syntax-ns#"
   xmlns:svg="http://www.w3.org/2000/svg"
   xmlns="http://www.w3.org/2000/svg"
   xmlns:sodipodi="http://sodipodi.sourceforge.net/DTD/sodipodi-0.dtd"
   xmlns:inkscape="http://www.inkscape.org/namespaces/inkscape"
   height="48"
   viewBox="0 0 48 48"
   width="48"
   version="1.1"
   id="svg32"
   sodipodi:docname="file-manager-blue.svg"
   inkscape:version="0.92.3 (2405546, 2018-03-11)">
  <metadata
     id="metadata38">
    <rdf:RDF>
      <cc:Work
         rdf:about="">
        <dc:format>image/svg+xml</dc:format>
        <dc:type
           rdf:resource="http://purl.org/dc/dcmitype/StillImage" />
      </cc:Work>
    </rdf:RDF>
  </metadata>
  <defs
     id="defs36" />
  <sodipodi:namedview
     pagecolor="#ffffff"
     bordercolor="#666666"
     borderopacity="1"
     objecttolerance="10"
     gridtolerance="10"
     guidetolerance="10"
     inkscape:pageopacity="0"
     inkscape:pageshadow="2"
     inkscape:window-width="1920"
     inkscape:window-height="1055"
     id="namedview34"
     showgrid="false"
     inkscape:zoom="19.666667"
     inkscape:cx="28.061545"
     inkscape:cy="21.129037"
     inkscape:window-x="1366"
     inkscape:window-y="0"
     inkscape:window-maximized="1"
     inkscape:current-layer="g30" />
  <linearGradient
     id="a"
     gradientUnits="userSpaceOnUse"
     x1="10.789665"
     x2="10.29653"
     y1="43.786892"
     y2="4.535699">
    <stop
       offset="0"
       stop-color="#197cf1"
       id="stop2" />
    <stop
       offset="1"
       stop-color="#20bcfa"
       id="stop4" />
  </linearGradient>
  <linearGradient
     id="b"
     gradientTransform="matrix(1.0160988 0 0 1.0353173 -391.00723 -518.03966)"
     gradientUnits="userSpaceOnUse"
     x1="421.13245"
     x2="421.33725"
     y1="543.39435"
     y2="509.2738">
    <stop
       offset="0"
       stop-color="#a0d5ff"
       id="stop7" />
    <stop
       offset="1"
       stop-color="#fff"
       id="stop9" />
  </linearGradient>
  <g
     transform="translate(-384.57163 -500.298188)"
     id="g30">
    <path
       d="m401.77172 506.5146c-.11773-.003-.25993.002-.44479.002h-13.95956c-.43765 0-.79054.35537-.79054.79594v4.85127c-.00065.0184-.005.0355-.005.054v29.33993c0 .84441.68084 1.52526 1.52525 1.52526h40.9513c.8444 0 1.52345-.68085 1.52345-1.52526v-29.33993c0-.8444-.67905-1.52525-1.52345-1.52525h-24.45265c-.0145-.0194-.0242-.0298-.0396-.0504-.56424-.76017-1.41637-2.8096-1.97184-3.55112-.3344-.48691-.45896-.56699-.81215-.57624z"
       fill-opacity=".666667"
       id="path12" />
    <path
       d="m16.455078 4.1816406c-.127691-.00335-.281922.00195-.482422.00195h-15.14062475c-.47468 0-.85742188.3854412-.85742188.8632812v5.2617192c-.00070335.01991-.0058594.03851-.0058594.05859v31.822265c0 .915848.73844863 1.654297 1.65429693 1.654297h44.4160151c.915849 0 1.652344-.738449 1.652344-1.654297v-31.822258c0-.9158487-.736495-1.6542974-1.652344-1.6542974h-26.521484c-.01578-.021028-.0263-.032293-.04297-.054687-.61198-.82449-1.536202-3.0473125-2.138671-3.8515625-.362686-.5281125-.497787-.6149598-.88086-.625z"
       fill="url(#a)"
       transform="matrix(.92199395 0 0 .92199395 386.600241802849 501.6589522221)"
       id="path14" />
    <path
       d="M 23.949219,8.7128906 C 20.697711,15.243364 19.356139,21.643264 19.601562,27.730469 v 0 c 0.974907,8.65303 6.147898,10.902738 7.845704,16.113281 h 18.591796 c 0.91585,0 1.652344,-0.738449 1.652344,-1.654297 V 10.367188 c 0,-0.9158492 -0.736494,-1.6542974 -1.652344,-1.6542974 z"
       transform="matrix(0.92199395,0,0,0.92199395,386.60024,501.65895)"
       id="path16"
       inkscape:connector-curvature="0"
       style="opacity:0.82999998;fill:url(#b);fill-rule:evenodd"
       sodipodi:nodetypes="ccccssssc" />
    <g
       fill="#fff"
       fill-opacity=".852041"
       id="g28">
      <circle
         cx="398.571667"
         cy="508.795368"
         r="1.781426"
         id="circle22" />
      <circle
         cx="394.195297"
         cy="508.833148"
         r="1.781426"
         id="circle24" />
      <circle
         cx="389.893357"
         cy="508.875328"
         r="1.781426"
         id="circle26" />
    </g>
  </g>
</svg>
