<?xml version="1.0" encoding="UTF-8" standalone="no"?>
<svg
   xmlns:dc="http://purl.org/dc/elements/1.1/"
   xmlns:cc="http://creativecommons.org/ns#"
   xmlns:rdf="http://www.w3.org/1999/02/22-rdf-syntax-ns#"
   xmlns:svg="http://www.w3.org/2000/svg"
   xmlns="http://www.w3.org/2000/svg"
   xmlns:sodipodi="http://sodipodi.sourceforge.net/DTD/sodipodi-0.dtd"
   xmlns:inkscape="http://www.inkscape.org/namespaces/inkscape"
   height="48"
   viewBox="0 0 48 48"
   width="48"
   version="1.1"
   id="svg32"
   sodipodi:docname="file-manager-red.svg"
   inkscape:version="0.92.3 (2405546, 2018-03-11)">
  <metadata
     id="metadata38">
    <rdf:RDF>
      <cc:Work
         rdf:about="">
        <dc:format>image/svg+xml</dc:format>
        <dc:type
           rdf:resource="http://purl.org/dc/dcmitype/StillImage" />
      </cc:Work>
    </rdf:RDF>
  </metadata>
  <defs
     id="defs36" />
  <sodipodi:namedview
     pagecolor="#ffffff"
     bordercolor="#666666"
     borderopacity="1"
     objecttolerance="10"
     gridtolerance="10"
     guidetolerance="10"
     inkscape:pageopacity="0"
     inkscape:pageshadow="2"
     inkscape:window-width="1920"
     inkscape:window-height="1055"
     id="namedview34"
     showgrid="false"
     inkscape:zoom="13.906433"
     inkscape:cx="25.338906"
     inkscape:cy="25.339933"
     inkscape:window-x="1366"
     inkscape:window-y="0"
     inkscape:window-maximized="1"
     inkscape:current-layer="g30" />
  <linearGradient
     id="a"
     gradientUnits="userSpaceOnUse"
     x1="396.548245852527"
     x2="396.093578365994"
     y1="542.030199513303"
     y2="505.840837037021">
    <stop
       offset="0"
       stop-color="#fd415a"
       id="stop2" />
    <stop
       offset="1"
       stop-color="#fc593d"
       id="stop4" />
  </linearGradient>
  <linearGradient
     id="b"
     gradientTransform="matrix(.93683695 0 0 .95455629 26.09394 24.029518)"
     gradientUnits="userSpaceOnUse"
     x1="421.13245"
     x2="421.33725"
     y1="543.39435"
     y2="509.2738">
    <stop
       offset="0"
       stop-color="#f99fa5"
       id="stop7" />
    <stop
       offset="1"
       stop-color="#fff"
       id="stop9" />
  </linearGradient>
  <g
     transform="translate(-384.57143 -500.298221)"
     id="g30">
    <path
       d="m401.77172 506.5146c-.11773-.003-.25993.002-.44479.002h-13.95956c-.43765 0-.79054.35537-.79054.79594v4.85127c-.00065.0184-.005.0355-.005.054v29.33993c0 .84441.68084 1.52526 1.52525 1.52526h40.9513c.8444 0 1.52345-.68085 1.52345-1.52526v-29.33993c0-.8444-.67905-1.52525-1.52345-1.52525h-24.45265c-.0145-.0194-.0242-.0298-.0396-.0504-.56424-.76017-1.41637-2.8096-1.97184-3.55112-.3344-.48691-.45896-.56699-.81215-.57624z"
       fill-opacity=".666667"
       id="path12" />
    <path
       d="m401.77172 505.5144c-.11773-.003-.25993.002-.44479.002h-13.95956c-.43765 0-.79054.35537-.79054.79594v4.85127c-.00065.0184-.005.0355-.005.054v29.33993c0 .84441.68084 1.52526 1.52525 1.52526h40.9513c.8444 0 1.52345-.68085 1.52345-1.52526v-29.33993c0-.8444-.67905-1.52525-1.52345-1.52525h-24.45265c-.0145-.0194-.0242-.0298-.0396-.0504-.56424-.76017-1.41637-2.8096-1.97184-3.55112-.3344-.48691-.45896-.56699-.81215-.57624z"
       id="path14"
       fill="url(#a)" />
    <path
       d="m 408.68128,509.69218 c -2.99788,6.02106 -4.2348,11.92173 -4.00852,17.53409 v 0 c 0.78545,6.3037 5.66833,10.05226 7.23369,14.85635 h 17.14153 c 0.8444,0 1.52345,-0.68084 1.52345,-1.52525 v -29.33994 c 0,-0.8444 -0.67905,-1.52525 -1.52345,-1.52525 z"
       id="path16"
       inkscape:connector-curvature="0"
       style="opacity:0.82999998;fill:url(#b);fill-rule:evenodd"
       sodipodi:nodetypes="ccccssssc" />
    <g
       fill="#fff"
       fill-opacity=".852041"
       id="g28">
      <circle
         cx="398.571667"
         cy="508.795368"
         r="1.781426"
         id="circle22" />
      <circle
         cx="394.195297"
         cy="508.833148"
         r="1.781426"
         id="circle24" />
      <circle
         cx="389.893357"
         cy="508.875328"
         r="1.781426"
         id="circle26" />
    </g>
  </g>
</svg>
