<?xml version="1.0" encoding="UTF-8" standalone="no"?>
<svg
   xmlns:dc="http://purl.org/dc/elements/1.1/"
   xmlns:cc="http://creativecommons.org/ns#"
   xmlns:rdf="http://www.w3.org/1999/02/22-rdf-syntax-ns#"
   xmlns:svg="http://www.w3.org/2000/svg"
   xmlns="http://www.w3.org/2000/svg"
   xmlns:sodipodi="http://sodipodi.sourceforge.net/DTD/sodipodi-0.dtd"
   xmlns:inkscape="http://www.inkscape.org/namespaces/inkscape"
   height="48"
   viewBox="0 0 48 48"
   width="48"
   version="1.1"
   id="svg23"
   sodipodi:docname="krusader_user.svg"
   inkscape:version="0.92.3 (2405546, 2018-03-11)">
  <metadata
     id="metadata29">
    <rdf:RDF>
      <cc:Work
         rdf:about="">
        <dc:format>image/svg+xml</dc:format>
        <dc:type
           rdf:resource="http://purl.org/dc/dcmitype/StillImage" />
      </cc:Work>
    </rdf:RDF>
  </metadata>
  <defs
     id="defs27" />
  <sodipodi:namedview
     pagecolor="#ffffff"
     bordercolor="#666666"
     borderopacity="1"
     objecttolerance="10"
     gridtolerance="10"
     guidetolerance="10"
     inkscape:pageopacity="0"
     inkscape:pageshadow="2"
     inkscape:window-width="640"
     inkscape:window-height="480"
     id="namedview25"
     showgrid="false"
     inkscape:zoom="4.9166667"
     inkscape:cx="24"
     inkscape:cy="24"
     inkscape:window-x="1366"
     inkscape:window-y="0"
     inkscape:window-maximized="0"
     inkscape:current-layer="g19" />
  <linearGradient
     id="a"
     gradientUnits="userSpaceOnUse"
     x1="397.127267383426"
     x2="396.688677715375"
     y1="540.607433213098"
     y2="505.697788372528">
    <stop
       offset="0"
       stop-color="#197cf1"
       id="stop2" />
    <stop
       offset="1"
       stop-color="#20bcfa"
       id="stop4" />
  </linearGradient>
  <g
     transform="matrix(1.036658 0 0 1.036658 -399.708563 -518.693058)"
     id="g21">
    <path
       d="m402.16603 506.34772c-.11356-.003-.25073.002-.42906.002h-13.46592c-.42218 0-.76259.34281-.76259.7678v4.67972c-.00063.0177-.005.0342-.005.0521v28.30242c0 .81455.65676 1.47132 1.47131 1.47132h39.50319c.81455 0 1.46958-.65677 1.46958-1.47132v-28.30242c0-.81454-.65503-1.47132-1.46958-1.47132h-23.58778c-.014-.0187-.0233-.0287-.0382-.0486-.54429-.73329-1.36628-2.71025-1.90211-3.42555-.32257-.46969-.44273-.54694-.78343-.55586z"
       fill-opacity=".666667"
       stroke-width=".964638"
       id="path7" />
    <path
       d="m402.16603 505.38289c-.11356-.003-.25074.002-.42906.002h-13.46593c-.42218 0-.76258.3428-.76258.76779v4.67972c-.00063.0177-.005.0343-.005.0521v28.30243c0 .81455.65677 1.47132 1.47131 1.47132h39.50319c.81455 0 1.46958-.65677 1.46958-1.47132v-28.30242c0-.81455-.65503-1.47132-1.46958-1.47132h-23.58796c-.014-.0187-.0234-.0287-.0382-.0486-.54428-.7333-1.36628-2.71026-1.90211-3.42555-.32257-.4697-.44273-.54694-.78343-.55587z"
       fill="url(#a)"
       stroke-width=".889391"
       id="path9" />
    <g
       fill="#fff"
       id="g19">
      <circle
         cx="399.07913"
         cy="508.54785"
         fill-opacity=".852041"
         r="1.718432"
         stroke-width=".964638"
         id="circle13" />
      <circle
         cx="394.85751"
         cy="508.58429"
         fill-opacity=".852041"
         r="1.718432"
         stroke-width=".964638"
         id="circle15" />
      <circle
         cx="390.7077"
         cy="508.625"
         fill-opacity=".852041"
         r="1.718432"
         stroke-width=".964638"
         id="circle17" />
    </g>
  </g>
</svg>
